<?xml version="1.0" encoding="UTF-8" standalone="no"?>
<!-- Created with Inkscape (http://www.inkscape.org/) -->

<svg
   xmlns:dc="http://purl.org/dc/elements/1.1/"
   xmlns:cc="http://creativecommons.org/ns#"
   xmlns:rdf="http://www.w3.org/1999/02/22-rdf-syntax-ns#"
   xmlns:svg="http://www.w3.org/2000/svg"
   xmlns="http://www.w3.org/2000/svg"
   xmlns:sodipodi="http://sodipodi.sourceforge.net/DTD/sodipodi-0.dtd"
   xmlns:inkscape="http://www.inkscape.org/namespaces/inkscape"
   width="700mm"
   height="700mm"
   viewBox="0 0 700 700"
   version="1.1"
   id="svg8"
   inkscape:version="0.92.3 (2405546, 2018-03-11)"
   sodipodi:docname="next_courses.svg">
  <defs
     id="defs2" />
  <sodipodi:namedview
     id="base"
     pagecolor="yellow"
     bordercolor="#666666"
     borderopacity="1.0"
     inkscape:pageopacity="0.0"
     inkscape:pageshadow="2"
     inkscape:zoom="0.25"
     inkscape:cx="2493.0127"
     inkscape:cy="1096.3292"
     inkscape:document-units="mm"
     inkscape:current-layer="layer1"
     showgrid="false"
     inkscape:pagecheckerboard="true"
     borderlayer="true"
     inkscape:window-width="1920"
     inkscape:window-height="1001"
     inkscape:window-x="-9"
     inkscape:window-y="-9"
     inkscape:window-maximized="1" />
  <metadata
     id="metadata5">
    <rdf:RDF>
      <cc:Work
         rdf:about="">
        <dc:format>image/svg+xml</dc:format>
        <dc:type
           rdf:resource="http://purl.org/dc/dcmitype/StillImage" />
        <dc:title />
      </cc:Work>
    </rdf:RDF>
  </metadata>
  <g
     inkscape:label="Ebene 1"
     inkscape:groupmode="layer"
     id="layer1"
     transform="translate(0,403)">
    <rect
       style="fill:#f00000;fill-opacity:0;stroke:none;stroke-width:0.26499999;stroke-linecap:butt;stroke-linejoin:round;stroke-miterlimit:4;stroke-dasharray:none;stroke-opacity:1"
       id="rect815"
       width="742.95001"
       height="724.95831"
       x="-13.758333"
       y="-411.02502" />
    <rect
       style="fill:#ffffff;fill-opacity:0.94418603;stroke:none;stroke-width:0.26499999;stroke-linecap:butt;stroke-linejoin:round;stroke-miterlimit:4;stroke-dasharray:none;stroke-opacity:1"
       id="rect819"
       width="742.95001"
       height="724.95831"
       x="-13.758333"
       y="-411.02502" />
    <rect
       style="fill:#b4b4b4;fill-opacity:0.9255814;stroke:none;stroke-width:0.26499999;stroke-linecap:butt;stroke-linejoin:round;stroke-miterlimit:4;stroke-dasharray:none;stroke-opacity:1"
       id="rect821"
       width="837.14166"
       height="2.1166666"
       x="-61.383331"
       y="-310.48337" />
    <rect
       style="fill:#b4b4b4;fill-opacity:0.92558139;stroke:none;stroke-width:0.26499999;stroke-linecap:butt;stroke-linejoin:round;stroke-miterlimit:4;stroke-dasharray:none;stroke-opacity:1"
       id="rect821-5"
       width="837.14166"
       height="2.1166666"
       x="-64.02916"
       y="-224.75833" />
    <rect
       style="fill:#b4b4b4;fill-opacity:0.92558139;stroke:none;stroke-width:0.26499999;stroke-linecap:butt;stroke-linejoin:round;stroke-miterlimit:4;stroke-dasharray:none;stroke-opacity:1"
       id="rect821-3"
       width="837.14166"
       height="2.1166666"
       x="-51.329155"
       y="-145.38333" />
    <rect
       style="fill:#b4b4b4;fill-opacity:0.92558139;stroke:none;stroke-width:0.26499999;stroke-linecap:butt;stroke-linejoin:round;stroke-miterlimit:4;stroke-dasharray:none;stroke-opacity:1"
       id="rect821-0"
       width="837.14166"
       height="2.1166666"
       x="-62.970837"
       y="-60.1875" />
    <rect
       style="fill:#b4b4b4;fill-opacity:0.92558139;stroke:none;stroke-width:0.26499999;stroke-linecap:butt;stroke-linejoin:round;stroke-miterlimit:4;stroke-dasharray:none;stroke-opacity:1"
       id="rect821-2"
       width="837.14166"
       height="2.1166666"
       x="-54.504154"
       y="32.416672" />
    <rect
       style="fill:#b4b4b4;fill-opacity:0.92558139;stroke:none;stroke-width:0.26499999;stroke-linecap:butt;stroke-linejoin:round;stroke-miterlimit:4;stroke-dasharray:none;stroke-opacity:1"
       id="rect821-7"
       width="837.14166"
       height="2.1166666"
       x="-36.512501"
       y="123.43333" />
    <rect
       style="fill:#b4b4b4;fill-opacity:0.92558139;stroke:none;stroke-width:0.26499999;stroke-linecap:butt;stroke-linejoin:round;stroke-miterlimit:4;stroke-dasharray:none;stroke-opacity:1"
       id="rect821-21"
       width="837.14166"
       height="2.1166666"
       x="-28.045837"
       y="209.15834" />
    <path
       style="fill:#ffe680;stroke-width:4"
       d="M -50.9873,159.74009 V -28.259909 h 1402 1402 v 187.999999 188 h -1402 -1402 z"
       id="path18"
       inkscape:connector-curvature="0"
       transform="matrix(0.26458333,0,0,0.26458333,0,-403)" />
    <path
       style="fill:#ffe680;stroke-width:4"
       d="m -50.9873,515.74009 v -156 h 1402 1402 v 156 156 h -1402 -1402 z"
       id="path20"
       inkscape:connector-curvature="0"
       transform="matrix(0.26458333,0,0,0.26458333,0,-403)" />
    <path
       style="fill:#ffe680;stroke-width:4"
       d="m -50.9873,827.74009 v -144 h 1402 1402 v 144 144 h -1402 -1402 z"
       id="path22"
       inkscape:connector-curvature="0"
       transform="matrix(0.26458333,0,0,0.26458333,0,-403)" />
    <path
       style="fill:#ffe680;stroke-width:4"
       d="M -50.9873,1139.7401 V 983.74009 h 1402 1402 v 156.00001 156 h -1402 -1402 z"
       id="path24"
       inkscape:connector-curvature="0"
       transform="matrix(0.26458333,0,0,0.26458333,0,-403)" />
    <path
       style="fill:#ffe680;stroke-width:4"
       d="m -50.9873,1473.7401 v -170 h 1402 1402 v 170 170 h -1402 -1402 z"
       id="path26"
       inkscape:connector-curvature="0"
       transform="matrix(0.26458333,0,0,0.26458333,0,-403)" />
    <path
       style="fill:#ffe680;stroke-width:4"
       d="m -50.9873,1821.7401 v -166 h 1402 1402 v 166 166 h -1402 -1402 z"
       id="path28"
       inkscape:connector-curvature="0"
       transform="matrix(0.26458333,0,0,0.26458333,0,-403)" />
    <path
       style="fill:#ffe680;stroke-width:4"
       d="m -50.9873,2155.7401 v -156 h 1402 1402 v 156 156 h -1402 -1402 z"
       id="path30"
       inkscape:connector-curvature="0"
       transform="matrix(0.26458333,0,0,0.26458333,0,-403)" />
    <path
       style="fill:#ffeeaa;stroke-width:4"
       d="m -50.9873,2515.7401 v -192 h 1402 1402 v 192 192 h -1402 -1402 z"
       id="path32"
       inkscape:connector-curvature="0"
       transform="matrix(0.26458333,0,0,0.26458333,0,-403)" />
    <path
       style="fill:#ffeeaa;stroke-width:4"
       d="m -50.9873,2155.7401 v -156 h 1402 1402 v 156 156 h -1402 -1402 z"
       id="path34"
       inkscape:connector-curvature="0"
       transform="matrix(0.26458333,0,0,0.26458333,0,-403)" />
    <path
       style="fill:#ffeeaa;stroke-width:4"
       d="m 647.68778,1988.7402 c 385.37132,-0.5623 1017.17132,-0.5624 1404.00002,-10e-5 386.8287,0.5624 71.5249,1.0224 -700.6751,1.0224 -772.2,10e-5 -1088.6962,-0.46 -703.32492,-1.0223 z"
       id="path36"
       inkscape:connector-curvature="0"
       transform="matrix(0.26458333,0,0,0.26458333,0,-403)" />
    <path
       style="fill:#ffeeaa;stroke-width:4"
       d="m -50.9873,1821.7401 v -166 h 1402 1402 v 166 166 h -1402 -1402 z"
       id="path38"
       inkscape:connector-curvature="0"
       transform="matrix(0.26458333,0,0,0.26458333,0,-403)" />
    <path
       style="fill:#ffeeaa;stroke-width:4"
       d="M -50.9873,157.74009 V -32.259909 h 1402 1402 v 189.999999 190 h -1402 -1402 z"
       id="path40"
       inkscape:connector-curvature="0"
       transform="matrix(0.26458333,0,0,0.26458333,0,-403)" />
    <path
       style="fill:#ffeeaa;stroke-width:4"
       d="m -50.9873,515.74009 v -156 h 1402 1402 v 156 156 h -1402 -1402 z"
       id="path42"
       inkscape:connector-curvature="0"
       transform="matrix(0.26458333,0,0,0.26458333,0,-403)" />
    <path
       style="fill:#ffeeaa;stroke-width:4"
       d="m -50.9873,827.74009 v -144 h 1402 1402 v 144 144 h -1402 -1402 z"
       id="path44"
       inkscape:connector-curvature="0"
       transform="matrix(0.26458333,0,0,0.26458333,0,-403)" />
    <path
       style="fill:#ffeeaa;stroke-width:4"
       d="M -50.9873,1139.7401 V 983.74009 h 1402 1402 v 156.00001 156 h -1402 -1402 z"
       id="path46"
       inkscape:connector-curvature="0"
       transform="matrix(0.26458333,0,0,0.26458333,0,-403)" />
    <path
       style="fill:#ffeeaa;stroke-width:4"
       d="m 647.68778,1652.7402 c 385.37132,-0.5623 1017.17132,-0.5624 1404.00002,-10e-5 386.8287,0.5624 71.5249,1.0224 -700.6751,1.0224 -772.2,10e-5 -1088.6962,-0.46 -703.32492,-1.0223 z"
       id="path48"
       inkscape:connector-curvature="0"
       transform="matrix(0.26458333,0,0,0.26458333,0,-403)" />
    <path
       style="fill:#ffeeaa;stroke-width:4"
       d="m -50.9873,1473.7401 v -170 h 1402 1402 v 170 170 h -1402 -1402 z"
       id="path50"
       inkscape:connector-curvature="0"
       transform="matrix(0.26458333,0,0,0.26458333,0,-403)" />
  </g>
</svg>
